<mxfile host="app.diagrams.net" modified="2023-11-29T01:53:32.146Z" agent="Mozilla/5.0 (Macintosh; Intel Mac OS X 10_15_7) AppleWebKit/537.36 (KHTML, like Gecko) Chrome/119.0.0.0 Safari/537.36" version="21.7.2" etag="UUD8eXb4BIPri1LEUept" type="github">
  <diagram name="Page-1" id="oWBd5qUz45D7BsNP9ON0">
    <mxGraphModel>
      <root>
        <mxCell id="0" />
        <mxCell id="1" parent="0" />
      </root>
    </mxGraphModel>
  </diagram>
</mxfile>
